<svg width="256" height="290" viewBox="0 0 256 290" fill="none" xmlns="http://www.w3.org/2000/svg">
<path d="M255.11 0L231.868 260.36L127.399 289.322L23.2165 260.401L0 0H255.11Z" fill="#E44D26"/>
<path d="M127.555 267.185L211.972 243.781L231.833 21.292H127.555V267.185Z" fill="#F16529"/>
<path d="M82.375 85.1669H127.555V53.2295H47.4718L48.2363 61.7978L56.0858 149.808H127.555V117.871H85.2937L82.375 85.1669Z" fill="#EBEBEB"/>
<path d="M89.5726 165.776H57.5128L61.9872 215.922L127.408 234.083L127.555 234.043V200.815L127.415 200.852L91.8464 191.248L89.5726 165.776Z" fill="#EBEBEB"/>
<path d="M127.444 149.807H166.771L163.064 191.227L127.444 200.841V234.067L192.917 215.922L193.397 210.526L200.902 126.446L201.682 117.87H127.444V149.807Z" fill="white"/>
<path d="M127.444 85.0888V85.1669H204.588L205.228 77.9883L206.683 61.7978L207.447 53.2295H127.444V85.0888Z" fill="white"/>
</svg>
