<svg width="200" height="200" viewBox="0 0 200 200" fill="none" xmlns="http://www.w3.org/2000/svg">
<circle cx="100" cy="100" r="100" fill="#C9D8EF"/>
<mask id="mask0" mask-type="alpha" maskUnits="userSpaceOnUse" x="0" y="0" width="200" height="200">
<circle cx="100" cy="100" r="100" fill="#A3A3F5"/>
</mask>
<g mask="url(#mask0)">
<path d="M12.9898 169.713L18.6376 161.524L22.3086 155.311L25.1325 151.64L33.1805 145.004L42.3581 139.215L46.1703 135.544L53.5124 130.603L61.8428 127.92L72.1499 121.425L75.9622 118.319L80.9039 116.342L78.2213 118.319L75.9622 120.295L75.2562 124.39L78.2213 132.015L81.6099 135.544L87.9636 141.051L93.4702 145.004L100.106 147.122L110.131 147.828L118.744 145.852C120.768 144.769 124.956 142.463 125.521 141.898C126.086 141.333 127.921 139.027 128.769 137.945L130.604 129.614L128.204 126.79L123.827 121.143L128.204 122.978L130.604 124.39L139.64 129.614L147.689 132.015L152.771 135.544L158.984 138.368L164.773 141.898L173.386 145.852L177.057 148.958L182.422 155.876L185.246 159.547L186.94 161.524L189.482 168.584L191.6 178.891L194 191.033V199.646H173.668H100.812H46.3115H24.1441H0L1.12955 193.293L8.8952 177.479L12.9898 169.713Z" fill="#9BBBEC"/>
<path d="M79.2095 106.741L78.5035 99.1164L79.2095 96.7161H81.4686C82.8805 98.6458 85.9303 102.759 86.834 103.776C87.9635 105.047 95.7292 108.576 96.9999 108.576C98.2706 108.576 107.166 109 107.589 108.576C107.928 108.238 114.32 104.388 117.473 102.505L121.991 96.7161L126.933 88.2445L128.627 89.5152L127.639 92.3391L126.933 99.1164V103.776L127.639 109.847V116.624V123.119L128.627 125.237C130.34 126.86 131.31 129.115 131.31 131.474V137.097C129.757 140.721 126.453 148.082 125.662 148.534C124.674 149.099 114.226 151.923 111.119 151.923C108.013 151.923 89.5166 147.546 88.9519 147.405C88.5343 147.3 84.1461 144.375 81.5139 142.594C81.109 142.32 80.7568 141.978 80.4693 141.583L74.6219 133.543C74.2949 133.093 74.0595 132.583 73.9294 132.043L72.291 125.237L72.4847 124.38C72.9918 122.134 74.4032 120.196 76.3856 119.025C76.8563 117.566 77.9388 114.45 78.5035 113.659C79.0683 112.869 79.2095 108.718 79.2095 106.741Z" fill="url(#paint0_linear)"/>
<path d="M126.215 94.8724L126.751 91.8935C127.102 89.9448 128.797 88.5269 130.777 88.5269C131.585 88.5269 132.375 88.2879 133.047 87.8398L133.596 87.4739C134.504 86.8686 135.238 86.0369 135.726 85.0609L136.676 83.1616L137.866 80.4405C138.382 79.2603 138.603 77.9719 138.507 76.6872L138.425 75.5693C138.388 75.0783 138.306 74.5918 138.179 74.1161L137.182 70.3771C136.864 69.1843 135.992 68.217 134.838 67.7776C134.104 67.4979 133.302 67.4501 132.54 67.6406L131.38 67.9305C131.065 68.0093 130.796 68.214 130.636 68.4966C130.094 69.4558 128.651 69.2196 128.443 68.1376L128.345 67.6303L127.639 60.0058L126.21 47.92C126.128 47.2263 125.954 46.5465 125.693 45.8984L122.326 37.5248C121.403 35.2317 119.462 33.5017 117.078 32.849L110.027 30.9183C109.346 30.732 108.644 30.6376 107.939 30.6376H91.7023C90.8165 30.6376 89.9369 30.7864 89.1004 31.078L82.5212 33.3707C81.5467 33.7103 80.6481 34.2374 79.8761 34.9222L73.7668 40.3417C72.798 41.2012 72.0551 42.2855 71.6035 43.4993L70.5286 46.388C70.2003 47.2702 70.0322 48.204 70.0322 49.1454V59.9053C70.0322 60.3481 70.0694 60.79 70.1434 61.2266L71.3508 68.35C71.4129 68.7167 71.4441 69.088 71.4441 69.4599V74.808C71.4441 75.5226 70.8649 76.1019 70.1503 76.1019C69.6476 76.1019 69.1904 76.3931 68.9778 76.8486L68.5932 77.6727C68.425 78.033 68.3379 78.4255 68.3379 78.8232V81.8909C68.3379 82.2135 68.6738 84.091 68.9859 85.7552C69.2061 86.9297 69.6987 88.0352 70.4157 88.9912L70.8755 89.6042C71.2532 90.1079 71.5695 90.6549 71.8175 91.2337L72.2913 92.3392L72.8179 93.853C73.1789 94.891 74.1574 95.5866 75.2564 95.5866C76.602 95.5866 77.7932 96.4568 78.2023 97.7388L79.2089 100.893C79.4896 101.772 79.9275 102.593 80.5016 103.316L82.9695 106.424C83.2862 106.823 83.6406 107.19 84.0278 107.52L87.9901 110.903C88.811 111.604 89.7668 112.129 90.7984 112.446L96.8712 114.315C97.888 114.628 98.9575 114.732 100.016 114.622L105.189 114.083H110.193C111.895 114.083 113.551 113.534 114.916 112.518L118.177 110.089C119.017 109.464 119.725 108.677 120.259 107.775L123.204 102.798C123.431 102.415 123.625 102.014 123.784 101.599L125.827 96.2643C125.999 95.8135 126.129 95.3475 126.215 94.8724Z" fill="#F1C7CA"/>
<path d="M73.5615 80.4789L74.6911 83.8675H74.2675H73.5615L72.7144 83.0204C72.5261 82.1732 72.0649 80.4789 71.726 80.4789C71.3872 80.4789 70.6435 78.5963 70.3141 77.655L69.4669 76.2431L68.6198 73.7016L68.055 70.5953L67.4902 67.0655L66.3607 63.3945L64.9487 59.8646L64.1016 57.1819V54.6405L65.5135 52.3814V48.9927V46.1688L67.4902 42.2154H65.5135L67.4902 38.968L65.5135 36.8501L66.9254 34.0262L65.5135 33.0378L66.9254 30.9199V29.0844L69.7493 28.0961V26.2606H73.5615L72.7144 24.2838L72.1496 21.8836H76.809L79.3505 21.1776V19.3421L82.4567 20.4716L84.5746 21.8836L85.8454 18.3537L84.5746 16.2358L85.8454 15.8122L89.94 16.8006V14.8239L93.4698 17.7889L94.317 16.8006L95.4465 13.6943L95.023 12L98.8352 12.4236L101.377 14.8239L100.953 12L104.201 13.1295L107.024 16.2358C107.636 16.9418 108.973 18.4384 109.425 18.7773C109.877 19.1162 110.931 18.6361 111.401 18.3537H114.508L115.778 21.8836L116.908 19.3421L117.896 15.3886L118.743 18.3537V21.1776L121.285 17.7889L124.532 15.3886L120.155 22.3071L123.685 20.1892L122.556 23.1543L126.086 21.1776V24.9898L127.639 23.1543L127.074 26.1194L128.627 24.9898L127.639 27.6725V29.3668C128.58 29.3198 130.688 29.2539 131.592 29.3668C132.496 29.4798 131.969 30.261 131.592 30.6376L128.627 31.3435L131.592 32.3319L132.298 34.0262H130.463L129.192 34.7322L132.298 35.4381L134.134 36.8501H132.863H129.757L132.298 37.9796L134.134 41.2271L135.263 43.0626H137.663H140.064L141.193 44.3333L140.064 44.8981L136.816 45.4629L140.064 46.8748L141.193 48.5691H138.369L140.064 49.9811H138.369L137.663 51.5342L136.816 52.9461L137.663 55.77V58.1703L136.251 63.2533L135.263 67.6303H133.286L131.027 68.6186L128.909 71.8661L128.203 73.984L127.074 72.8544C126.886 71.9132 126.453 69.9176 126.227 69.4658C126.001 69.014 125.097 66.5478 124.674 65.3712V60.5706V56.476L123.685 49.9811L121.285 45.4629L119.449 39.3916L114.508 36.0029L110.272 34.7322H106.036L100.953 34.0262L97.1409 34.7322L95.023 35.4381C93.7993 36.1912 91.1825 37.669 90.5048 37.556C89.827 37.4431 92.1991 36.097 93.4698 35.4381H90.5048L83.0215 36.8501L79.3505 39.3916L74.6911 45.4629L72.7144 51.1106L71.1612 54.2169V56.476H72.1496H74.6911L73.5615 60.5706L72.7144 64.2416V71.0189V76.2431L73.5615 80.4789Z" fill="#86634A"/>
<path d="M79.0682 61.8413L77.6562 65.23L80.7625 62.8297L83.1628 60.9942L85.9867 59.7234H88.5282H90.3637L92.1992 60.4294H94.1759L92.1992 57.6055L88.5282 57.0407L83.5864 57.6055L80.1977 59.7234L79.0682 61.8413Z" fill="#86634A" fill-opacity="0.8"/>
<path d="M103.495 55.4876L102.789 57.6055C103.871 57.0878 106.149 56.0524 106.601 56.0524H109.707H112.107L114.79 57.0407L117.614 57.6055L120.579 59.7234L116.626 55.4876L113.378 54.0757L109.142 53.2285L105.33 54.0757L103.495 55.4876Z" fill="#86634A" fill-opacity="0.8"/>
</g>
<defs>
<linearGradient id="paint0_linear" x1="103.5" y1="96.5" x2="101.8" y2="151.923" gradientUnits="userSpaceOnUse">
<stop stop-color="#EBB5B9"/>
<stop offset="0.782703" stop-color="#F1C7CA"/>
</linearGradient>
</defs>
</svg>
