<svg width="200" height="200" viewBox="0 0 200 200" fill="none" xmlns="http://www.w3.org/2000/svg">
<circle cx="100" cy="100" r="100" fill="#FAB3B3"/>
<mask id="mask0" mask-type="alpha" maskUnits="userSpaceOnUse" x="0" y="0" width="200" height="200">
<circle cx="100" cy="100" r="100" fill="#F5889D"/>
</mask>
<g mask="url(#mask0)">
<path d="M118.757 110.196L121.3 104.977L124.912 105.78L132.004 118.357C133.743 122.327 137.329 130.48 137.757 131.336C138.292 132.407 141.771 145.118 142.306 146.991C142.734 148.489 140.79 159.033 139.764 164.117L144.313 187.934C140.299 193.821 132.137 205.756 131.602 206.398C130.933 207.201 101.765 207.067 96.948 207.201C92.1312 207.335 67.3781 203.053 66.4415 202.25C65.5049 201.448 63.0965 194.356 62.1598 193.553C61.2232 192.751 58.012 178.969 56.4064 176.293C55.1219 174.152 49.1812 165.678 46.3714 161.709L42.8926 148.195L44.7658 141.906C47.8878 139.855 54.2656 135.537 54.8008 134.681C55.336 133.825 60.5542 127.545 63.0965 124.512L70.9907 122.907C72.8193 125.092 77.4666 129.463 81.4271 129.463H91.596L103.638 124.512L114.877 116.083L118.757 110.196Z" fill="url(#paint0_linear)"/>
<path d="M13.7989 140.836L9.78491 144.716C7.5103 151.584 2.96109 166.017 2.96109 168.8C2.96109 172.279 1.89068 192.75 2.96109 194.757C3.81741 196.363 7.1535 201.76 8.71451 204.257C19.8199 206.978 42.2717 212.419 43.235 212.419C44.4392 212.419 66.1149 212.285 74.5443 212.419C82.9738 212.553 112.41 214.426 114.684 213.757C116.959 213.088 140.374 210.278 143.05 210.011C145.726 209.743 162.719 205.997 164.057 205.06C165.395 204.123 171.817 204.792 172.353 203.588C172.781 202.625 175.252 203.633 176.634 202.518L186.134 200.243H194.965L199.514 190.743L201.789 185.525L203.528 176.561L205 167.596L204.331 161.842C203.885 160.995 202.913 159.14 202.591 158.497C202.27 157.855 201.12 157.07 200.584 156.758C199.782 156.892 198.096 157.079 197.775 156.758C197.373 156.357 195.5 155.286 194.965 154.216C194.43 153.145 191.62 154.35 190.817 154.216C190.175 154.109 188.052 152.922 187.071 152.343H182.388L178.909 150.871C177.169 150.871 173.53 150.817 172.888 150.603C172.245 150.389 172.263 149.979 172.353 149.8L169.676 149.131L166.064 150.871H162.719L160.043 149.131L155.494 148.195L144.79 146.322L138.902 147.258L136.36 159.3V176.561C136.36 177.524 136.806 184.009 136.36 187.265L134.279 199.708L123.783 201.983C114.863 202.206 95.8186 202.759 91.0018 203.187C86.185 203.615 73.6523 201.403 67.9881 200.243L65.4459 192.75L63.8403 183.518V174.42L59.1573 154.885L55.8123 146.322L48.5871 137.089L40.2914 134.681L28.9184 133.744L18.0805 137.089L13.7989 140.836Z" fill="#EE606C"/>
<path d="M24.9633 132.808L19.6113 137.223C20.9493 136.643 23.7324 135.43 24.1605 135.216C24.5887 135.002 27.907 134.77 29.5126 134.681L33.7942 136.153L38.611 139.498L41.0194 142.709L44.632 149.934L47.308 159.434L48.7798 168.131L50.5192 178.434V193.553L51.991 200.645H67.7795L66.8429 193.553V186.462V176.962C66.8429 176.427 66.2185 172.011 65.9063 169.871L63.4979 156.357L59.3501 147.794L53.0614 139.096C50.876 137.402 46.3714 133.932 45.8362 133.611C45.1672 133.209 41.287 132.808 40.0828 132.808H33.259H24.9633Z" fill="#62658F"/>
<path d="M133.743 198.771L133.208 202.25L133.743 203.321C135.215 204.124 138.506 205.702 139.898 205.595C141.289 205.488 149.799 204.124 153.546 203.856L154.348 200.645C154.081 198.771 153.546 194.891 153.546 194.356V190.476V186.596V176.694L152.877 169.871L151.271 162.11C150.513 159.479 148.996 154.082 148.996 153.547C148.996 153.012 149.398 148.463 149.398 146.991L144.313 146.188L136.419 147.392L135.616 149.934L134.947 158.765L135.616 166.659V179.237L134.947 188.201L134.278 194.49L133.743 198.771Z" fill="#62658F"/>
<path d="M57.3438 64.0343L59.4846 54.802L62.4282 51.5908C63.4986 50.7434 65.7999 48.9416 66.4422 48.5134C67.245 47.9782 71.3928 43.8304 72.597 43.8304C73.5604 43.8304 79.8668 42.9384 82.8996 42.4924C84.0592 41.422 86.6996 39.0404 87.9841 38.077C89.5897 36.8728 91.1953 33.9292 91.5967 33.1264C91.9178 32.4841 94.3173 29.38 95.4769 27.9082L101.899 25.6335L103.104 30.1828L101.097 34.9996L97.7515 40.084L95.4769 43.8304L97.7515 46.774L100.026 47.7106L110.596 52.795L113.808 60.9569L116.484 70.3229L118.089 76.6115L118.758 81.4283L119.962 90.9282L121.836 98.0196V103.104L120.631 107.787L119.962 110.998L117.822 115.012L114.61 118.223L110.463 121.97L105.512 125.583L100.963 129.329L96.6811 132.273L92.9347 134.547L89.9911 135.216L86.3785 135.751L82.4982 136.287L78.2166 135.751L76.0758 133.611L74.3364 130.935L72.8646 127.188L71.259 124.78L69.1182 121.97L67.245 119.294L65.238 116.618L63.6324 113.139L61.0902 109.259L59.3508 105.78L58.4142 102.435V97.8858V92.4V89.1888L57.3438 83.8368V77.1467V70.3229V64.0343Z" fill="#F8C9C0"/>
<path d="M60.0198 75.4074L57.3438 77.2806V79.689L58.9494 77.9496H60.6888L64.3014 78.7524H66.576L69.1182 79.689L69.7872 78.7524C68.8952 77.9942 67.0041 76.4243 66.576 76.2102C66.1478 75.9961 63.7216 75.5858 62.562 75.4074H60.0198Z" fill="#1E170D" fill-opacity="0.8"/>
<path d="M81.0264 76.2102L82.632 77.2806L84.2376 76.6116L86.5123 75.4074L88.5193 74.337L91.5967 73.4004L94.5403 72.7314H96.0121L98.5543 73.4004L101.632 74.337L103.639 74.7384L101.632 73.4004C100.071 72.6422 96.8952 71.1258 96.6811 71.1258C96.467 71.1258 94.6295 70.769 93.7375 70.5906L90.9277 71.1258L87.9841 72.1962C86.8691 72.553 84.5588 73.2933 84.2376 73.4004C83.9165 73.5074 82.409 74.0694 81.6954 74.337L81.0264 76.2102Z" fill="#1E170D" fill-opacity="0.8"/>
<path d="M91.5965 43.6967L94.2725 41.2883H94.9415L94.2725 44.0981V46.3727L95.4767 47.9783H97.7513L102.3 46.9079L104.174 49.4501L105.244 52.7951L105.779 55.8725L108.589 59.2176L110.864 61.7598V65.7738C110.864 66.0949 111.042 68.4944 111.131 69.654C111.979 70.4122 113.727 71.9821 113.941 72.1962C114.155 72.4103 115.101 74.6938 115.547 75.8088C115.725 77.1022 116.135 79.7426 116.35 79.9566C116.564 80.1707 117.688 81.3838 118.223 81.9636C118.044 83.6138 117.688 86.9678 117.688 87.1819C117.688 87.3959 118.044 88.8767 118.223 89.5903V91.7311L117.019 92.6677L116.483 95.4775L115.547 99.0901C115.993 98.3765 116.912 96.869 117.019 96.5479C117.126 96.2268 117.509 94.7193 117.688 94.0057L118.758 93.3367L119.427 96.0127V94.0057L119.962 92.6677L120.631 95.4775V98.5549L119.962 101.499V104.308L120.364 106.048L120.631 102.837L121.3 98.0197V95.0761L122.103 98.0197L121.3 103.372V106.048L122.103 110.196L121.3 115.28V122.238L118.892 130.801L116.216 138.561L113.54 147.258L112.603 151.674L108.857 160.237L109.66 165.857L112.603 170.138L115.814 174.42C117.197 175.713 120.31 178.273 121.702 178.166C123.441 178.032 124.779 177.631 125.983 177.096C126.474 176.878 127.403 176.673 128.356 176.508C129.861 176.246 131.176 175.295 131.785 173.895L131.967 173.475C132.08 173.215 132.138 172.936 132.138 172.653C132.138 171.998 132.451 171.381 132.979 170.993L133.498 170.612C133.923 170.301 134.416 170.097 134.935 170.001C136.375 169.734 138.293 169.291 138.293 168.934C138.293 168.649 139.045 167.992 139.797 167.413C140.198 167.105 140.085 166.455 139.597 166.322C139.447 166.281 139.319 166.183 139.241 166.048L138.861 165.397C138.63 165.002 138.798 164.493 139.219 164.313C139.314 164.272 139.416 164.251 139.52 164.251H140.185C140.616 164.251 141.043 164.182 141.452 164.045L142.861 163.576C144.178 163.137 145.417 162.492 146.533 161.666L148.462 160.237L150.201 158.23V156.758L149.048 157.228C147.51 157.855 144.106 157.842 144.849 156.357C145.521 155.013 146.334 153.684 145.939 152.235L145.786 151.674L138.828 147.66H141.638L144.18 147.124L146.187 148.462L148.328 150.603L148.462 150.068L150.201 148.864L154.75 150.603L158.497 149.533L161.039 147.66L163.581 145.786L161.039 144.716L164.25 142.709L166.257 140.434L163.849 140.97L161.039 140.434L160.37 138.294C161.307 138.383 163.394 138.561 164.25 138.561C165.321 138.561 166.257 138.294 166.525 138.294C166.739 138.294 167.684 137.223 168.13 136.688L167.194 137.223H163.581C163.046 137.223 162.466 135.528 162.243 134.681L163.849 133.209L166.257 132.54L167.194 129.597V127.054C167.194 126.733 167.461 124.958 167.595 124.111L166.525 121.569V119.963L167.863 118.759L167.595 117.153L166.525 116.217L163.18 114.076L165.722 114.611H167.863L166.525 112.604C167.818 112.916 170.592 113.46 171.342 113.139C172.091 112.818 173.17 112.649 173.616 112.604L175.088 109.259L172.813 110.865L167.863 110.196L163.18 108.322C162.645 108.108 161.53 104.576 161.039 102.837L159.166 98.0197C159.567 96.5033 160.29 93.3902 159.969 93.0691C159.567 92.6677 159.3 89.1889 159.166 88.6537C159.032 88.1185 157.56 83.4354 157.159 82.9002C156.757 82.365 154.483 79.4214 154.081 78.7524C153.76 78.2172 152.877 75.3182 152.476 73.9356L150.335 69.7878C149.8 68.0038 148.622 64.3287 148.194 63.9006C147.766 63.4724 145.696 59.7974 144.715 58.0134V50.9219V44.7671L140.567 36.4715L133.744 31.2533L129.194 27.9082L123.575 24.2956L119.293 22.5562C118.981 22.1102 118.196 21.0041 117.554 20.1478C116.912 19.2915 115.502 18.7206 114.878 18.5422L110.73 17.7394L103.639 20.1478L100.427 17.0704L93.0683 16C90.7491 16.3568 86.0304 17.0704 85.7092 17.0704C85.3881 17.0704 81.383 18.5868 79.4206 19.345L72.1954 22.021L66.8434 24.1618L58.8153 26.704L56.4069 29.7815C54.8905 30.9411 51.8042 33.3138 51.5901 33.5279C51.3225 33.7955 49.5831 35.9363 49.0479 37.0067C48.6197 37.863 47.2639 39.5043 46.6395 40.2179H49.0479C50.0113 40.2179 47.8437 41.7343 46.6395 42.4925L43.9635 47.4431L41.5551 54.2669C41.1983 55.8725 40.4847 59.164 40.4847 59.4852V65.3724C40.4847 65.8005 40.1279 69.4756 39.9495 71.2596C39.7711 72.107 39.4143 73.9089 39.4143 74.337C39.4143 74.7652 40.1279 76.4778 40.4847 77.2806V74.337L41.1537 73.8018L42.4917 75.9426V81.4284L41.1537 82.365L40.4847 85.0411V87.9847L41.1537 89.7241L40.4847 91.3297L39.9495 94.8085L40.4847 97.0831L41.1537 93.3367L41.6889 94.1395V98.6887L42.4917 102.837L43.8297 108.991L45.4353 113.139L47.3085 116.752L49.0479 117.555C48.7357 117.019 48.0845 115.842 47.9775 115.414C47.8437 114.879 46.5057 113.407 46.5057 112.872C46.5057 112.443 46.2381 111.088 46.1043 110.463V108.456L48.6465 111.132V112.872L49.0479 115.414L49.9845 117.555L51.3225 120.231L52.7943 120.9L51.5901 119.16L50.6535 116.35L51.3225 115.949L53.5971 117.153L54.8013 115.414L55.6041 117.555V119.829L54.8013 121.836L51.3225 122.907L52.5267 123.576L54.8013 124.78C54.6675 125.36 54.3732 126.653 54.2661 127.188C54.1591 127.723 53.2403 128.482 52.7943 128.794C52.0361 128.838 50.4127 128.901 49.9845 128.794C49.4493 128.66 47.7099 127.188 47.3085 127.188C46.9874 127.188 46.6395 126.475 46.5057 126.118V129.597C46.5057 130.399 48.3789 132.54 49.0479 132.54C49.7169 132.54 51.9915 133.209 52.7943 133.075C53.5971 132.942 56.0055 131.737 56.5407 131.737C56.9689 131.737 57.9679 130.489 58.4139 129.864L57.6111 132.54L56.0055 135.216C55.1135 135.751 53.2225 136.822 52.7943 136.822C52.2591 136.822 49.9845 137.089 49.0479 136.822C48.1113 136.554 46.5057 135.484 46.1043 135.484C45.7029 135.484 43.6959 134.012 43.4283 134.012C43.2142 134.012 42.7147 132.496 42.4917 131.737C42.0011 131.827 40.9396 131.952 40.6185 131.737C40.2974 131.523 40.0387 130.399 39.9495 129.864V127.188L39.0129 127.723L37.5411 130.132L37.0059 134.012L37.5411 135.484L39.9495 137.892L42.4917 141.371L46.5057 145.251L49.0479 146.589L52.7943 148.998L55.7379 151.005L58.8153 153.948H62.428L66.0406 153.146L64.435 156.089L63.2308 156.892L60.5547 158.899L63.2308 159.167H66.0406L69.5194 155.42L74.47 153.681L77.4136 151.674L76.7446 153.948L75.139 156.089H71.125L69.118 156.892H71.125H75.139H77.4136L80.0896 153.146L81.0262 150.068L81.4276 153.681L80.0896 156.892L78.6178 158.498C77.6366 158.721 75.4334 159.113 74.47 158.899C73.5066 158.685 72.8198 158.542 72.5968 158.498L71.794 159.167C72.7306 159.434 74.8179 159.969 75.6742 159.969C76.5305 159.969 79.599 158.988 81.0262 158.498L82.8994 153.681L82.0966 148.998L80.491 146.589V144.716L79.0192 143.646L78.2164 142.174L78.6178 140.434L77.0122 138.829L75.6742 137.892L74.2024 135.484V132.54V130.801L72.463 126.118L70.0546 123.308L67.9138 120.231L65.6392 116.752L63.097 112.872L60.6885 108.991L58.9491 105.111L58.0125 102.168V94.1395V90.7945C58.1463 89.9471 58.3337 88.1987 58.0125 87.9847C57.6914 87.7706 57.8787 87.0927 58.0125 86.7805V84.3721L57.3435 80.6256V75.4074V71.2596V66.1752L57.7449 61.626L58.5477 56.943L59.7519 53.7317L62.2942 51.8585L66.442 50.9219L69.3856 49.4501L72.8644 47.4431L76.2094 46.3727L78.8854 47.4431L83.167 47.9783L86.2444 47.4431L89.4557 45.8375L91.5965 43.6967Z" fill="#1E170D"/>
</g>
<defs>
<linearGradient id="paint0_linear" x1="96.4128" y1="86.9144" x2="93.603" y2="207.204" gradientUnits="userSpaceOnUse">
<stop stop-color="#F9AE9F"/>
<stop offset="1" stop-color="#FAC8BE"/>
</linearGradient>
</defs>
</svg>
