<svg width="839" height="562" viewBox="0 0 839 562" fill="none" xmlns="http://www.w3.org/2000/svg">
<g clip-path="url(#clip0)">
<path d="M839 298.694C839 412.371 766.906 509.227 665.925 546.082C650.563 551.7 634.706 555.859 618.564 558.505C574.156 565.784 528.625 561.651 486.255 546.497C384.635 509.945 312.014 412.762 312.062 298.639C312.062 153.278 430.024 35.3888 575.531 35.3888C630.523 35.3089 684.149 52.5023 728.83 84.5392C795.536 132.301 839 210.423 839 298.694Z" fill="#4D4D4D"/>
<path d="M665.925 546.082C650.563 551.7 634.706 555.859 618.564 558.505C574.156 565.784 528.625 561.652 486.255 546.497L498.422 497.706L499.157 494.777L523.987 494.873L648.728 495.32L650.324 500.035L665.925 546.082Z" fill="#2F2E41"/>
<path d="M228.86 0H0V258.801H228.86V0Z" fill="#E6E6E6"/>
<path d="M224.38 5.47522H4.08105V253.327H224.38V5.47522Z" fill="white"/>
<path d="M114.431 244.514C121.251 244.514 126.78 238.989 126.78 232.173C126.78 225.357 121.251 219.832 114.431 219.832C107.611 219.832 102.082 225.357 102.082 232.173C102.082 238.989 107.611 244.514 114.431 244.514Z" fill="#E6E6E6"/>
<path d="M112.344 93.2094H41.417V100.461H112.344V93.2094Z" fill="#E6E6E6"/>
<path d="M148.465 114.938H41.417V122.19H148.465V114.938Z" fill="#F56539"/>
<path d="M137.957 136.804H41.417V144.055H137.957V136.804Z" fill="#E6E6E6"/>
<path d="M190.495 158.092H41.417V165.343H190.495V158.092Z" fill="#F56539"/>
<path d="M164.462 178.366H42.9668V185.617H164.462V178.366Z" fill="#E6E6E6"/>
<path d="M325.432 421.122C326.302 422.015 327.101 422.976 327.82 423.994L439.682 421.259L452.732 397.428L491.294 412.409L472.292 456.841C470.758 460.431 468.099 463.426 464.716 465.377C461.333 467.328 457.408 468.13 453.53 467.662L327.145 452.404C324.164 456.175 320.104 458.951 315.506 460.36C310.908 461.77 305.989 461.748 301.404 460.295C296.819 458.843 292.786 456.031 289.839 452.232C286.893 448.433 285.174 443.827 284.911 439.028C284.647 434.228 285.852 429.463 288.365 425.364C290.878 421.266 294.58 418.029 298.979 416.085C303.377 414.141 308.264 413.581 312.989 414.48C317.713 415.379 322.052 417.694 325.428 421.117L325.432 421.122Z" fill="#9F616A"/>
<path d="M475.993 285.041L528.343 267.895L543.718 246.822L618.541 251.247L629.526 275.838L669.423 294.679L663.291 408.478L652.802 514.978C598.864 487.066 498.202 508.346 497.321 508.692L475.993 285.041Z" fill="#F56539"/>
<path d="M487.185 439.074L433.937 417.783L434.163 416.836C434.392 415.879 457.055 321.235 460.064 306.025C463.198 290.18 474.651 285.799 475.138 285.621L475.493 285.49L496.566 291.9L505.821 364.573L487.185 439.074Z" fill="#F56539"/>
<path d="M602.156 510.297C603.405 510.267 604.653 510.336 605.89 510.503L679.939 426.666L671.326 400.905L708.537 382.832L728.222 426.966C729.812 430.531 730.202 434.516 729.333 438.321C728.465 442.127 726.384 445.549 723.404 448.072L626.28 530.314C627.02 535.063 626.295 539.925 624.203 544.253C622.111 548.58 618.75 552.169 614.567 554.541C610.384 556.913 605.578 557.957 600.787 557.533C595.996 557.108 591.448 555.236 587.748 552.166C584.048 549.096 581.371 544.972 580.072 540.344C578.774 535.716 578.917 530.803 580.481 526.258C582.045 521.713 584.957 517.751 588.829 514.9C592.7 512.049 597.349 510.443 602.156 510.297Z" fill="#9F616A"/>
<path d="M674.029 434.827L643.14 362.214L655.187 311.635L668.168 295.245C669.119 294.839 670.144 294.634 671.178 294.644C672.212 294.653 673.233 294.877 674.176 295.301C678.966 297.226 683.038 303.128 686.293 312.842L715.242 395.248L674.029 434.827Z" fill="#F56539"/>
<path d="M513.768 219.915V165.171C513.736 155.538 515.603 145.993 519.262 137.08C522.922 128.168 528.302 120.064 535.095 113.229C541.888 106.395 549.962 100.965 558.856 97.2486C567.749 93.5326 577.288 91.6036 586.927 91.5717C596.566 91.5398 606.118 93.4056 615.035 97.0626C623.953 100.72 632.063 106.096 638.901 112.885C645.74 119.675 651.174 127.744 654.892 136.631C658.61 145.519 660.54 155.052 660.572 164.685C660.573 164.847 660.573 165.009 660.572 165.171V219.915C660.569 222.527 659.53 225.032 657.681 226.879C655.833 228.727 653.326 229.766 650.712 229.769H523.628C521.014 229.766 518.508 228.727 516.659 226.879C514.811 225.032 513.771 222.527 513.768 219.915Z" fill="#2F2E41"/>
<path d="M572.087 228.493C601.809 228.493 625.903 204.414 625.903 174.711C625.903 145.008 601.809 120.929 572.087 120.929C542.366 120.929 518.271 145.008 518.271 174.711C518.271 204.414 542.366 228.493 572.087 228.493Z" fill="#9F616A"/>
<path d="M496.403 169.551C496.421 154.166 502.544 139.416 513.429 128.538C524.315 117.659 539.074 111.54 554.468 111.522H565.424C580.819 111.54 595.577 117.659 606.463 128.538C617.348 139.416 623.471 154.166 623.488 169.551V170.646H600.335L592.438 148.544L590.859 170.646H578.894L574.91 159.496L574.112 170.646H496.403V169.551Z" fill="#2F2E41"/>
<path d="M566.791 235.925C565.704 234.454 565.055 232.706 564.919 230.883C564.782 229.059 565.164 227.234 566.019 225.618C577.629 203.55 593.883 162.772 572.308 137.624L570.761 135.819H633.4V229.803L576.497 239.836C575.922 239.938 575.338 239.99 574.753 239.99C573.2 239.991 571.668 239.622 570.285 238.916C568.902 238.21 567.706 237.186 566.795 235.928L566.791 235.925Z" fill="#2F2E41"/>
<path d="M114.231 20.1565C109.037 20.1562 103.96 21.6951 99.6415 24.5786C95.323 27.462 91.957 31.5605 89.9692 36.3558C87.9814 41.1511 87.4611 46.4277 88.4741 51.5185C89.487 56.6093 91.9878 61.2856 95.6601 64.956C99.3324 68.6264 104.011 71.1261 109.105 72.139C114.199 73.1519 119.479 72.6324 124.278 70.6464C129.076 68.6603 133.177 65.2968 136.063 60.9813C138.949 56.6657 140.489 51.5919 140.489 46.4014V46.4C140.489 42.9537 139.81 39.5411 138.491 36.357C137.171 33.173 135.237 30.28 132.798 27.843C130.36 25.4061 127.465 23.473 124.279 22.1542C121.093 20.8353 117.678 20.1565 114.23 20.1565H114.231ZM114.231 28.0288C115.789 28.0288 117.312 28.4905 118.607 29.3556C119.903 30.2206 120.912 31.4501 121.509 32.8885C122.105 34.327 122.261 35.9099 121.957 37.437C121.653 38.9641 120.903 40.3668 119.801 41.4678C118.699 42.5687 117.296 43.3185 115.768 43.6223C114.24 43.926 112.656 43.7702 111.216 43.1743C109.777 42.5785 108.547 41.5695 107.681 40.2749C106.816 38.9803 106.354 37.4582 106.354 35.9012C106.354 33.8134 107.184 31.811 108.661 30.3346C110.138 28.8583 112.142 28.0289 114.231 28.0288ZM114.231 65.9299C111.119 65.9157 108.057 65.1429 105.312 63.6785C102.566 62.2142 100.219 60.1025 98.475 57.5266C98.6015 52.2779 108.979 49.3888 114.231 49.3888C119.483 49.3888 129.86 52.2779 129.987 57.5266C128.241 60.1006 125.894 62.2108 123.148 63.6749C120.403 65.1391 117.343 65.913 114.231 65.9299Z" fill="#F56539"/>
<path d="M114.536 236.904C125.355 217.091 151.27 204.545 172.47 215.854C182.012 220.944 189.598 229.947 192.006 240.589C194.8 252.951 188.912 264.738 182.834 275.123C179.535 280.76 175.92 286.283 173.189 292.229C170.362 298.386 168.342 305.502 170.47 312.201C172.386 318.235 177.191 322.624 182.452 325.85C188.259 329.276 194.436 332.033 200.864 334.069C214.096 338.466 228.053 340.271 241.969 339.383C248.886 338.914 255.744 337.806 262.456 336.074C269.596 334.254 276.603 331.949 283.755 330.169C295.696 327.205 309.311 325.731 320.633 331.685C331.634 337.472 336.556 349.573 338.079 361.346C340.891 383.086 332.266 405.645 316.693 420.869C309.222 428.173 299.82 434.208 289.58 436.676C280.645 438.831 269.172 438.693 262.062 432.017C254.127 424.567 255.994 412.621 262.296 404.761C270.339 394.733 283.966 392.324 296.127 392.08C309.96 391.802 323.78 393.86 337.605 392.581C344.353 392.056 350.974 390.46 357.22 387.852C362.71 385.439 367.718 382.052 372.002 377.855C380.537 369.569 386.293 358.529 389.155 347.05C392.602 333.247 391.851 318.739 389.175 304.874C387.749 297.725 385.913 290.663 383.676 283.725C382.752 280.796 378.126 282.049 379.056 284.997C387.296 311.108 391.89 341.299 375.971 365.542C369.383 375.822 359.12 383.205 347.274 386.186C333.496 389.608 319.039 387.916 305.032 387.407C291.713 386.923 277.088 387.445 265.671 395.198C256.305 401.556 249.754 413.651 252.586 425.069C255.315 436.08 265.904 441.665 276.493 442.525C287.605 443.43 298.539 439.703 307.87 433.875C327.282 421.753 340.188 400.433 342.889 377.829C344.297 366.051 342.865 353.365 337.52 342.675C334.704 336.888 330.321 332.006 324.868 328.583C319.431 325.252 313.151 323.612 306.844 323.032C292.514 321.713 278.746 326.63 265.153 330.391C258.209 332.404 251.091 333.762 243.893 334.447C236.908 335.025 229.881 334.911 222.918 334.105C216.009 333.291 209.199 331.78 202.593 329.597C196.12 327.597 189.923 324.797 184.144 321.262C179.046 318.004 174.638 313.338 174.387 306.979C174.115 300.085 177.593 293.635 180.902 287.823C187.438 276.34 195.513 265.109 197.217 251.667C198.71 239.908 193.976 228.319 185.8 219.932C181.703 215.675 176.77 212.31 171.311 210.046C165.852 207.783 159.984 206.671 154.074 206.779C141.944 207.126 130.33 212.397 121.408 220.494C116.983 224.512 113.259 229.239 110.39 234.481C108.912 237.186 113.047 239.605 114.527 236.897L114.536 236.904Z" fill="#3F3D56"/>
</g>
<defs>
<clipPath id="clip0">
<rect width="839" height="562" fill="white"/>
</clipPath>
</defs>
</svg>
