<svg width="168" height="92" viewBox="0 0 168 92" fill="none" xmlns="http://www.w3.org/2000/svg">
<g clip-path="url(#clip0)">
<path d="M82.819 37.7642H29.659V68.6372H82.819V37.7642Z" fill="#4F1E8F"/>
<path d="M140.8 91.8608C155.291 91.8608 167.038 80.1136 167.038 65.6228C167.038 51.1319 155.291 39.3848 140.8 39.3848C126.309 39.3848 114.562 51.1319 114.562 65.6228C114.562 80.1136 126.309 91.8608 140.8 91.8608Z" fill="#212121"/>
<path d="M140.352 77.7998C147.365 77.7998 153.05 72.1147 153.05 65.1018C153.05 58.0889 147.365 52.4038 140.352 52.4038C133.339 52.4038 127.654 58.0889 127.654 65.1018C127.654 72.1147 133.339 77.7998 140.352 77.7998Z" fill="#DCD9D3"/>
<path d="M26.894 91.8608C41.3849 91.8608 53.132 80.1136 53.132 65.6228C53.132 51.1319 41.3849 39.3848 26.894 39.3848C12.4032 39.3848 0.656006 51.1319 0.656006 65.6228C0.656006 80.1136 12.4032 91.8608 26.894 91.8608Z" fill="#212121"/>
<path d="M26.447 77.7998C33.4599 77.7998 39.145 72.1147 39.145 65.1018C39.145 58.0889 33.4599 52.4038 26.447 52.4038C19.4341 52.4038 13.749 58.0889 13.749 65.1018C13.749 72.1147 19.4341 77.7998 26.447 77.7998Z" fill="#DCD9D3"/>
<path d="M95.844 75.1768H72.091C67.14 75.1768 63.912 69.9748 66.11 65.5388L81.144 35.2018L120.414 34.8628L98.503 73.6248C97.961 74.5838 96.945 75.1768 95.844 75.1768Z" fill="#4F1E8F"/>
<path d="M78.167 58.849H44.251V52.874H78.167C79.817 52.874 81.154 54.211 81.154 55.861C81.154 57.511 79.817 58.849 78.167 58.849Z" fill="#DCD9D3"/>
<path d="M77.71 68.6112H46.904V62.6362H77.71C79.36 62.6362 80.697 63.9732 80.697 65.6232C80.697 67.2732 79.36 68.6112 77.71 68.6112Z" fill="#DCD9D3"/>
<path d="M74.537 48.533L81.144 35.201C81.144 35.201 68.752 35.467 55.952 33.009C47.679 31.421 40.413 29.67 36.704 28.738C35.158 28.349 33.545 29.048 32.769 30.441L29.705 35.943C29.063 37.096 29.716 38.541 31.007 38.816C33.546 39.359 37.464 40.45 40.713 42.464C44.587 44.865 47.672 48 48.795 49.721C50.027 51.608 51.044 51.372 53.133 51.353C59.371 51.299 70.082 50.115 74.537 48.533Z" fill="#5f00ef"/>
<path d="M120.414 34.8612L121.297 33.3582C121.297 33.3582 119.307 25.2332 115.563 22.7202C112.272 20.5122 105.9 20.5412 101.311 21.0662C92.076 22.1222 83.721 28.6312 81.145 35.2002L120.414 34.8612Z" fill="#5f00ef"/>
<path d="M135.629 18.7979C135.629 23.0389 133.038 26.6749 129.352 28.2089C128.728 28.4679 128.074 28.6679 127.394 28.7999C126.716 28.6679 126.062 28.4679 125.438 28.2089V9.3869C126.062 9.1279 126.716 8.9279 127.394 8.7959C128.074 8.9279 128.728 9.1279 129.352 9.3869C133.038 10.9209 135.629 14.5569 135.629 18.7979Z" fill="#E2C896"/>
<path d="M129.191 8.58398V28.965C128.52 28.965 127.866 28.901 127.233 28.777C126.555 28.645 125.901 28.445 125.277 28.186C121.592 26.652 119 23.016 119 18.775C119 14.534 121.591 10.898 125.277 9.36399C125.901 9.10499 126.555 8.90498 127.233 8.77298C127.866 8.64698 128.521 8.58398 129.191 8.58398Z" fill="#5f00ef"/>
<path d="M135.596 61.773L102.02 3.618L108.287 0L141.863 58.155C142.862 59.885 142.269 62.098 140.539 63.097C138.808 64.097 136.595 63.504 135.596 61.773Z" fill="#939598"/>
<path d="M102.538 3.37879L87.897 10.6938L90.567 16.0388L105.208 8.72379C106.684 7.98679 107.283 6.19179 106.545 4.71679C105.808 3.24079 104.014 2.64179 102.538 3.37879Z" fill="#5f00ef"/>
</g>
<defs>
<clipPath id="clip0">
<rect width="167.625" height="91.862" fill="white"/>
</clipPath>
</defs>
</svg>
