<?xml version="1.0" encoding="UTF-8"?>
<svg version="1.2" xmlns="http://www.w3.org/2000/svg" width="520" height="520" viewBox="0 0 520 520">
<title>Jesus Youth Logo</title>
<path style="fill:#000000; fill-rule:evenodd; stroke:none;" d="m260.01429,55.343c112.70059,0 204.61426,91.942 204.61426,204.671 0,96.311-67.15782,177.432-157.04419,198.989l1.28491-113.614c52.30998-15.019 77.06586-89.743 83.00498-196.362l-23.55662-1.685c-2.91245,79.493-17.41762,150.877-58.7916,163.754-26.2121,8.167-79.74988-8.508-99.96574-84.09l-17.96014-0.571c12.3351,54.338 39.26103,95.283 87.54497,116.698L266.2675,464.514c-2.0844,0.06-4.16881,0.115-6.25321,0.115-112.72915,0-204.67136-91.914-204.67136-204.615 0-112.729 91.94221-204.671 204.67136-204.671zm0,0 0,0zm-10.679,230.569c0.91371-28.496 1.77032-56.907 2.91245-85.489 33.09349-1.171 52.22433,8.566 68.2428,19.902l22.98558-84.718c-71.01251,55.051-139.54087,51.739-205.47086-9.88l9.87951,106.676c21.12957-17.932 45.85689-30.067 74.72446-30.895-0.34264,14.048-0.57107,28.125-0.77095,42.174l0.25699,0.656 2.39849,5.654 2.54126,5.339 2.65547,5.054 2.79824,4.74 2.85535,4.398 2.99812,4.14 3.05522,3.855 3.11233,3.569 3.19799,3.312 1.62755,1.513zm0,0 0,0zm-75.4383,62.018c18.64542,14.848 35.52053,6.625 35.20644-29.324-2.56981-47.142-38.31877-47.427-54.62281-20.387-21.27235,34.921-3.28365,110.302 50.16847,112.386 37.11952-1.256 40.40317-37.233 42.85878-73.211 0.0856-1.684 0.14276-3.369 0.19987-5.054l-1.14214-0.828-3.79761-2.969-3.6834-3.084-3.54063-3.198-3.42642-3.284-3.34076-3.398-3.19799-3.512-3.08378-3.597-1.42767-1.799c-0.17132,11.45-0.3712,22.928-0.65673,34.378 2.71258,41.945-43.48695,51.368-46.51362,6.881zm0,0 0,0zm61.81829-241.876c11.9639,0 21.70064,13.134 21.70064,29.239 0,16.104-9.73674,29.238-21.70064,29.238-11.93536,0-21.6721-13.134-21.6721-29.238 0-16.105 9.73674-29.239 21.6721-29.239zm0,0 0,0zM303.0444,229.89c9.25129,0.686 15.87571,13.449 14.76212,28.383-1.14215,14.962-9.59396,26.583-18.84528,25.898-9.25133-0.714-15.87573-13.449-14.7336-28.44 1.11359-14.933 9.56542-26.554 18.81676-25.841zm0,0 0,0zM260.01429,21.621c-130.48942,0-238.39302,107.904-238.39302,238.393 0,130.433 107.9036,238.336 238.39302,238.336 130.43229,0 238.33586-107.903 238.33586-238.336 0-130.489-107.90357-238.393-238.33586-238.393zm0,0 0,0zm0-11.621C123.15745,10 10,123.157 10,260.014 10,396.814 123.15745,510 260.01429,510 396.81401,510 510.00005,396.814 510.00005,260.014 510.00005,123.157 396.81401,10 260.01429,10z" />
</svg>
