<svg width="200" height="200" viewBox="0 0 200 200" fill="none" xmlns="http://www.w3.org/2000/svg">
<circle cx="100" cy="100" r="100" fill="#A3A3F5"/>
<mask id="mask0" mask-type="alpha" maskUnits="userSpaceOnUse" x="0" y="0" width="200" height="200">
<circle cx="100" cy="100" r="100" fill="#A3A3F5"/>
</mask>
<g mask="url(#mask0)">
<rect x="24" y="152" width="156" height="52" fill="#6060A2"/>
<path d="M12.6299 147.251L9 152.738V182.664H191V153.836L189.734 149.108L186.062 140.498L183.867 133.407L179.477 123.91L171.289 116.397L162.341 109.475L151.578 106.183L143.896 101.456L131.487 98.5435H128.195L126.718 104.368L125.831 107.28V111.67V118.972L123.805 126.654L121.062 133.407L118.529 140.498L116.714 145.985L113.76 153.836L109.032 161.855L107.091 168.144L105.782 166.329L104.39 159.407L98.3539 152.654L94.3442 147.758H89.4058L91.0519 139.147L89.4058 130.959L83.9188 127.456L80.289 120.534L77.5455 113.949L75.7305 104.832V99.0078L74.6331 94.0695L73.3669 96.0954L66.8669 104.917L63.5747 109.475L59.0162 111.67C57.7359 112.402 54.9558 114.008 54.0779 114.582C53.2 115.156 50.6732 116.032 49.5195 116.397L43.4838 118.972L40.1916 122.982L34.9156 126.654L25.9675 133.407L18.8344 140.498L12.6299 147.251Z" fill="#6060A2"/>
<path d="M74.886 99.8519L72.7334 94.5338L74.3795 92.6344L76.912 95.8C78.0797 97.1506 80.4152 99.9617 80.4152 100.401C80.4152 100.84 82.2442 102.835 83.1587 103.777C84.425 104.65 87.1853 106.462 88.097 106.732C89.0087 107.002 92.1068 107.829 93.5418 108.209L101.055 110.826L110.467 112.261L114.73 112.008L122.328 109.349L126.295 107.66L127.308 112.641L125.113 123.868L122.328 133.281L119.331 138.852L117.6 143.748L116.714 149.277L113.717 156.157C112.479 157.902 109.952 161.501 109.75 161.94C109.547 162.379 108.399 165.499 107.85 167.005V172.365L105.571 168.186C104.882 167.047 103.393 164.641 102.954 164.134C102.515 163.628 100.605 161.616 99.7042 160.673L97.8892 157.803C97.1014 156.65 95.399 154.182 94.8925 153.54C94.386 152.899 92.9369 151.331 92.2756 150.628L88.7302 148.813L89.2789 144.761L88.7302 137.966L86.9574 134.547L83.1587 131.086L80.4152 126.274L77.5451 119.225L75.9834 112.261L75.5191 105.845L74.886 99.8519Z" fill="url(#paint0_linear)"/>
<path d="M114.013 38.6085L109.996 33.6918C109.439 33.0103 108.609 32.6141 107.729 32.619C102.327 32.6486 93.1965 32.852 91.0938 33.5014C88.9356 34.1678 80.9902 35.6323 76.6085 36.4017C76.0884 36.493 75.6038 36.721 75.203 37.0649C71.7745 40.0066 65.7407 45.19 64.8827 45.9527C64.0172 46.722 61.5871 51.7364 60.3078 54.5176C60.1778 54.8003 60.0959 55.1005 60.062 55.4097L58.9736 65.326V74.2366C58.9736 74.5411 59.0211 74.8438 59.1143 75.1336L59.9726 77.8041C60.0658 78.094 60.1132 78.3966 60.1132 78.7011V82.7573C60.1132 83.0653 60.1618 83.3713 60.257 83.6641L61.2529 86.7254L63.0363 91.0133C63.1688 91.3318 63.3565 91.6245 63.5907 91.8778L66.2754 94.781C66.6611 95.1981 67.1598 95.4942 67.7106 95.6331L70.7035 96.3881C71.2568 96.5276 71.8388 96.5027 72.3782 96.3162L73.1012 96.0663C74.2308 95.6758 75.4843 96.0103 76.2693 96.9116L77.2496 98.0371L79.0578 99.9991C79.1746 100.126 79.28 100.263 79.3728 100.408L81.4704 103.693L82.8866 106.004C83.0113 106.207 83.1603 106.394 83.3303 106.562L85.3027 108.502C85.532 108.727 85.7968 108.913 86.0866 109.053L89.9283 110.903C90.1139 110.992 90.3083 111.062 90.5084 111.11L100.464 113.527L108.441 114.878L114.066 115.275C114.689 115.319 115.31 115.162 115.839 114.828L117.429 113.822C117.737 113.627 118.079 113.492 118.438 113.422L119.843 113.149C120.417 113.038 120.944 112.758 121.358 112.345L122.08 111.622C122.217 111.486 122.366 111.363 122.527 111.256L123.237 110.782C123.611 110.533 124.036 110.374 124.481 110.315L125.651 110.161C126.513 110.048 127.28 109.555 127.741 108.817C127.956 108.472 128.097 108.085 128.155 107.683L129.004 101.697C129.027 101.537 129.063 101.378 129.112 101.224L130.389 97.1929L131.816 91.643C131.878 91.4045 131.909 91.1592 131.909 90.913V85.3747V81.8769C131.909 81.7328 131.898 81.5889 131.877 81.4463L131.276 77.3975L130.798 73.0636C130.779 72.8861 130.743 72.7108 130.692 72.5398L129.334 68.0273L127.604 64.1442L125.873 60.0501L124.604 57.4761C124.466 57.196 124.374 56.8957 124.33 56.5864L124.149 55.2894C124.117 55.0592 124.057 54.8337 123.972 54.6175L122.581 51.102L120.639 47.1767L117.431 42.4072L114.013 38.6085Z" fill="#DCA3A4"/>
<path d="M72.0157 82.1669L71.2981 85.4591L69.2722 84.9104L68.5968 82.6734L66.8241 81.0273L64.5871 79.2546L61.4637 76.9754L59.1423 77.6929L58.0871 76.4689L57.4962 73.2189C57.046 72.023 56.078 69.4962 55.8079 68.9559C55.5378 68.4156 53.9226 66.733 53.1488 65.9591C53.0222 64.7633 52.7689 62.3039 52.7689 62.0338C52.7689 61.7637 52.5438 59.0793 52.4313 57.7708L51.5871 54.7741L53.9085 50.5955L50.7852 51.9039L58.2981 44.0533L52.1358 47.2611L57.8761 41.563H54.4572L57.8761 38.313L56.9897 33.4591L60.5352 29.9981L64.2916 28.141L65.8533 25.6085V22.6117H70.6228L75.5611 21.7254L80.1196 19.5306L78.9378 21.7254L80.9637 20.9656L84.2981 18.9397H87.1683L85.5222 20.9656H89.4897L94.4702 20.1637L97.1293 17.9689H102.236L105.444 17.0825L104.853 18.9397L107.977 17.9689H115.912L112.873 18.9397L116.629 21.7254L114.772 22.6117L117.685 23.4981L118.402 25.6085L120.892 26.7903L124.311 29.9981L121.905 28.8163L123.594 33.4591L124.311 38.313V39.9169L125.788 41.563H123.594L124.86 42.9559L123.594 43.5468L124.311 46.3747L123.594 51.9039L124.311 55.6604L124.86 58.826V60.8098L123.594 57.7708L122.623 53.8877L120.892 50.0046L118.402 44.9397L116.629 41.563L114.772 39.9169L112.873 37.089L107.977 35.9072L103.714 37.089L94.4702 39.9169H88.2235L83.2852 43.5468H78.9378L73.4507 45.6572L69.5676 50.0046L70.6228 55.2806L68.0481 57.7708V60.8098L70.6228 63.8488L72.7332 66.5501L70.6228 69.9689L69.5676 73.5988L71.2981 75.6247L72.0157 79.2546V82.1669Z" fill="#271012"/>
<path d="M82.0199 67.5208L78.8965 71.9527H80.2471L82.0199 70.7708L85.1432 68.9137L88.0134 66.5501L92.5718 64.9884H96.5815H99.5361L100.38 63.3423L99.5361 61.2741L96.5815 60.5566L89.7439 62.2027L85.1432 64.4819L82.0199 67.5208Z" fill="#4E181D"/>
<path d="M108.062 58.0241L107.471 60.5566V61.2741L109.371 60.0501L113.296 58.0241C114.253 57.5879 116.25 56.7156 116.588 56.7156H119.754H121.146V55.7871L117.728 54.6475H114.351L110.426 55.7871L108.062 58.0241Z" fill="#4E181D"/>
</g>
<defs>
<linearGradient id="paint0_linear" x1="100.021" y1="92.6344" x2="103" y2="141.5" gradientUnits="userSpaceOnUse">
<stop stop-color="#BD8A8B"/>
<stop offset="1" stop-color="#DCA3A4"/>
</linearGradient>
</defs>
</svg>
