<svg width="200" height="200" viewBox="0 0 200 200" fill="none" xmlns="http://www.w3.org/2000/svg">
<circle cx="100" cy="100" r="100" fill="#8B859A"/>
<mask id="mask0" mask-type="alpha" maskUnits="userSpaceOnUse" x="0" y="0" width="200" height="200">
<circle cx="100" cy="100" r="100" fill="#F5889D"/>
</mask>
<g mask="url(#mask0)">
<path d="M71.3077 89.2187V82.2733L74.4331 86.7878C75.2434 89.7974 76.9334 96.164 77.2112 97.5531C77.489 98.9421 81.7257 102.068 83.8093 103.457C87.8607 106.35 96.936 112.486 100.825 113.875C104.715 115.264 110.317 113.296 112.632 112.138L128.607 98.5949L129.301 105.54C129.649 108.318 130.412 114.361 130.69 116.305C131.038 118.736 128.954 126.723 128.607 127.765C128.259 128.807 120.62 136.447 117.494 138.531C114.369 140.614 107.076 142.35 103.603 142.35C100.131 142.35 85.5456 142.698 81.3784 142.35C77.2112 142.003 61.9315 137.489 61.2369 136.447C60.5424 135.405 57.417 125.334 57.417 124.293C57.417 123.459 59.2691 119.315 60.1951 117.347L64.3623 114.916L68.8768 109.36L69.5713 102.762L70.6131 95.8167L71.3077 89.2187Z" fill="url(#paint0_linear)"/>
<path d="M71.3069 53.7975L75.1268 57.6175L79.294 45.1159L81.0303 37.8232L88.3229 25.3216C91.3326 24.6271 97.4908 23.238 98.0464 23.238C98.602 23.238 106.844 23.7011 110.895 23.9326C115.062 24.7429 123.536 26.4329 124.091 26.7107C124.647 26.9885 133.352 30.9937 137.635 32.9615L142.149 42.3377V49.9776L140.76 57.6175L139.718 65.6046V69.7718L140.76 71.8554L143.191 69.7718H145.969L147.011 71.8554V74.9808V78.1062L145.275 82.2734L142.149 85.0515L139.024 88.5242L137.635 91.9969L136.246 95.8168C136.13 96.1641 135.69 96.9975 134.857 97.5531C134.023 98.1088 133.583 97.7847 133.468 97.5531L131.384 95.8168L130.342 97.5531L127.911 100.679L126.87 103.804L123.05 109.013L120.619 112.138L116.104 117.347L112.632 120.125L108.464 123.251C107.538 123.482 105.478 124.084 104.644 124.64C103.811 125.196 100.593 124.871 99.0882 124.64C97.1204 124.293 93.0458 123.529 92.4901 123.251L89.0175 121.515L85.5448 119.431L82.7667 115.264L80.6831 112.138L79.294 109.013L76.5159 103.804C75.7056 101.952 74.0155 98.1782 73.7377 97.9004C73.4599 97.6226 72.4644 94.312 72.0014 92.6914L71.3069 88.1769V83.6625V81.5789H69.2233L66.4451 78.8007L65.0561 74.9808V70.4663V66.2991C65.0561 65.7435 64.13 64.2155 63.667 63.521V60.0483L65.0561 55.8811L67.1397 52.4085L69.2233 51.3667L71.3069 53.7975Z" fill="#F8C9C0"/>
<path d="M91.1005 29.1415L87.6278 32.6141L86.586 34.0032L87.6278 37.1286L88.3223 39.9067L86.586 42.6849L82.4188 44.7685L80.3352 48.2412L78.5989 54.1447L76.5153 60.3955C76.2837 61.5531 75.8207 64.0071 75.8207 64.5627C75.8207 65.1183 75.1262 67.3408 74.7789 68.3826L73.0426 69.0772V66.299L74.0844 61.7846L74.7789 58.6592L74.0844 56.2283L72.0008 54.1447L69.2227 52.7556L70.2645 46.1576V42.6849L73.0426 38.865V34.6977L74.0844 32.6141L76.8625 22.1961L78.2516 20.4598L78.2156 23.9325C79.1221 22.9564 80.5881 21.3364 81.377 20.4598L83.4606 18.0289V19.418V20.4598L86.9333 18.0289L88.6696 15.5981V18.0289V19.418L90.4059 18.7235L92.4895 19.0707L95.2677 16.2926L97.004 12.4727L98.3931 11.0836V15.5981L101.171 13.8617L103.602 9V13.1672L102.908 15.5981L106.38 13.8617L108.811 15.5981L114.02 9L112.978 12.4727C113.441 13.5145 114.506 15.5981 115.062 15.5981C115.618 15.5981 117.609 14.9035 118.535 14.5563H120.271L123.396 16.2926L125.827 14.5563V16.2926L127.911 19.0707V14.5563L129.3 17.3344L131.036 19.0707L134.509 19.418L135.898 21.1543L136.94 18.3762L137.981 15.5981L139.718 21.1543V24.2797L141.454 21.1543V17.6817L143.885 20.1125V21.8489L148.399 24.2797L151.525 27.0579H149.789L148.399 29.1415L149.789 31.5723L151.525 34.0032L152.567 37.8231V39.9067L154.65 43.7267L152.567 42.6849V46.1576L153.261 48.2412L151.525 50.3248L152.567 54.8392L149.789 58.6592L148.399 61.09L147.358 64.2154V67.3408L145.621 69.7717H142.496L141.454 72.2026L140.412 76.3698L139.718 79.8424L137.287 82.2733L135.898 81.2315L137.287 78.4534L139.023 75.6752V71.508L139.718 65.6045L140.412 61.09L139.718 56.9228L139.023 54.1447L140.412 50.3248V47.1994L139.718 43.7267L137.981 41.2958L135.898 38.865V42.6849V46.1576L134.162 49.6302V45.463V41.2958V38.865L135.203 36.0868L133.467 34.6977L131.731 36.0868L128.258 40.6013L124.785 42.6849L122.702 42.3376L125.48 40.9486L127.216 39.5595L129.3 36.4341L130.689 34.0032L127.216 35.7395L123.396 37.1286L121.66 36.4341L125.133 34.6977L127.216 33.6559L127.911 31.9196L125.133 31.2251L122.354 31.5723L118.535 29.1415L114.02 28.4469L109.158 27.0579L104.297 28.4469L97.3513 27.7524L93.5313 28.4469L91.1005 29.1415Z" fill="#423124"/>
<path d="M104.297 51.7138L108.464 54.1447L107.075 54.8392L104.297 54.1447H101.866C101.171 54.1447 99.4349 54.1447 98.0458 53.4502C96.9346 52.8945 96.8882 52.5241 97.004 52.4084L93.5313 51.7138H89.3641H86.586H84.5024L87.6278 49.6302C89.5956 49.1672 93.6702 48.2412 94.2259 48.2412C94.7815 48.2412 97.004 49.1672 98.0458 49.6302C98.7403 50.3248 100.477 51.7138 101.866 51.7138H104.297Z" fill="#423124"/>
<path d="M127.216 54.8392H123.396L124.438 57.2701L128.258 59.0064L130.689 60.0482L132.425 62.1318H135.203L136.245 63.5209L136.592 65.2572L137.981 66.299V63.5209L137.287 61.09L136.245 59.0064L134.162 57.9646C133.351 57.6174 131.731 56.7839 131.731 56.2283C131.731 55.5338 127.911 54.8392 127.216 54.8392Z" fill="#423124"/>
<path d="M66.021 118.389L68.1817 111.097L62.2009 110.402L49.0047 120.125C45.7636 125.219 39.2814 135.752 39.2814 137.142C39.2814 138.878 37.8924 166.312 39.2814 171.174C40.6705 176.035 46.574 196.871 49.0049 198.955C51.4358 201.039 87.2043 210.415 93.8023 212.498C99.0808 214.165 107.809 210.878 111.513 209.026L123.667 149.99C127.14 146.055 130.613 134.85 130.613 134.016C130.613 132.974 132.079 116.653 132.079 115.611C132.079 114.778 131.77 114.685 130.613 112.138L129.648 115.264L126.175 127.071L111.513 135.405H103.179C98.201 135.637 88.0377 135.961 87.2043 135.405C86.3708 134.85 81.3007 134.248 78.8699 134.016L71.5772 130.543L66.021 125.334V118.389Z" fill="#1B1131"/>
<path d="M69.2235 106.929L69.5708 103.109L65.0563 103.804L60.1946 110.055L56.7219 118.042L55.3329 125.334L50.4711 133.669L45.6094 148.254V159.019L43.1785 174.646V186.801L40.0531 204.511L38.6641 215.971C41.7895 215.971 48.1097 215.832 48.3875 215.276C48.6653 214.721 55.2171 207.868 58.4583 204.511L65.7509 189.579C67.2557 186.338 70.2653 179.577 70.2653 178.466C70.2653 177.077 73.738 172.215 74.0853 171.174C74.3631 170.34 74.8956 165.27 75.1271 162.839L70.2653 151.032L66.7927 141.656L65.0563 135.405L63.32 128.807L64.3618 120.82L66.4454 114.916L68.529 110.402L69.2235 108.666V106.929Z" fill="#AE242D"/>
<path d="M127.564 117.347C127.564 116.792 128.722 112.485 128.953 110.749L129.648 108.318L132.426 113.527V124.987L131.384 134.363L124.786 152.421L117.494 164.575L107.076 178.466L101.519 191.315L97.6994 198.26L94.9213 208.678L91.4486 218.749L82.0724 217.36C82.3039 214.35 83.4615 206.109 83.4615 205.553C83.4615 204.858 85.8924 193.051 85.8924 192.357C85.8924 191.801 86.3554 184.254 86.5869 180.55C86.8184 178.582 87.2814 174.368 87.2814 173.257C87.2814 171.868 88.3232 167.354 88.6705 166.659C89.0178 165.965 93.185 159.019 93.5322 157.977C93.81 157.144 96.6576 152.074 98.0467 149.643C99.8988 148.601 103.811 146.518 104.645 146.518C105.478 146.518 108.928 143.045 110.548 141.309C112.979 138.646 117.91 133.252 118.188 132.974C118.535 132.627 125.481 126.029 125.828 124.987C126.175 123.945 127.564 118.042 127.564 117.347Z" fill="#AE242D"/>
<path d="M69.9184 103.457V99.6367L67.4875 100.331L63.3203 102.068L58.8058 105.193L55.6804 109.013L51.1659 113.875H47.6933L41.0952 117.347L32.0663 121.862L25.1209 120.125H17.8283L10.5357 121.862L1.50678 125.682L-8.56396 130.543L-14.8148 134.711L-23.1492 140.614L-26.6218 152.769C-25.0013 158.788 -28.0113 179.369 -26.6222 181.592C-24.8859 184.37 -3.35496 212.846 -0.229555 216.318C2.89585 219.791 18.8701 220.138 21.9955 219.791C24.4958 219.513 34.1499 217.36 38.6643 216.318L42.8315 199.65L45.9569 157.63V147.56L47.6933 140.614C49.3138 138.183 52.555 133.183 52.555 132.627C52.555 132.071 55.5647 129.617 57.0695 128.46V125.682V120.125L59.5004 112.833L63.3203 106.929L66.793 104.151L69.9184 103.457Z" fill="#281F3C"/>
<path d="M128.954 109.707L129.648 107.624L131.385 109.36L134.51 111.444L137.983 115.958L138.677 121.862L140.761 124.293L144.928 127.418L149.442 131.238L155.346 137.142L164.028 140.267L174.098 144.434L179.307 147.56L186.947 153.81L192.156 158.325L198.407 166.659L205.7 174.299L212.645 181.592L214.381 185.759L211.603 193.052C208.941 196.061 202.991 202.289 200.491 203.122C197.365 204.164 167.848 221.18 166.111 222.222C164.375 223.264 144.581 225 132.079 225C122.078 225 108.696 224.074 103.256 223.611C100.015 220.486 93.5325 214.026 93.5325 213.193C93.5325 212.36 93.9955 209.257 93.5325 206.248L98.047 193.052L103.256 183.675L107.423 177.077L110.549 170.132L116.799 161.797L119.578 153.81L124.439 143.392C125.944 140.614 128.954 134.919 128.954 134.363C128.954 133.808 130.806 129.502 131.732 127.418L132.079 119.778V117L131.732 113.527L129.648 111.444L128.954 109.707Z" fill="#281F3C"/>
</g>
<defs>
<linearGradient id="paint0_linear" x1="102.214" y1="106.235" x2="89.0594" y2="146.644" gradientUnits="userSpaceOnUse">
<stop stop-color="#F9AE9F"/>
<stop offset="1" stop-color="#FAC8BE"/>
</linearGradient>
</defs>
</svg>
