<svg width="200" height="200" viewBox="0 0 200 200" fill="none" xmlns="http://www.w3.org/2000/svg">
<circle cx="100" cy="100" r="100" fill="#AAD194"/>
<mask id="mask0" mask-type="alpha" maskUnits="userSpaceOnUse" x="0" y="0" width="200" height="200">
<circle cx="100" cy="100" r="100" fill="#A3A3F5"/>
</mask>
<g mask="url(#mask0)">
<rect x="47" y="145" width="144" height="59" fill="#C4DBB7"/>
<path d="M20.6321 184.552L17 191.557V192.335H182L193.5 159L195.5 148.5L178.238 139.8H175.255L168.769 137.594L156.575 134.222L151.257 132.925L143.085 127.736L133.486 123.196L110.656 127.736C98.9811 128.774 75.4505 130.849 74.7241 130.849C73.9976 130.849 60.7579 138.459 54.2288 142.264L50.9858 145.507L43.7217 147.193L39.3113 152.642L32.4363 158.09L28.1557 164.965L24.783 171.71L22.1887 180.92L20.6321 184.552Z" fill="#C4DBB7"/>
<path d="M88.545 105.98L76.6799 102.251C76.0203 102.044 75.3015 102.158 74.7389 102.56C74.1599 102.974 73.8164 103.64 73.8164 104.352V112.818V133.314V158.219C73.8164 161.336 72.6705 168.494 71.8535 173.059C71.6173 174.378 71.78 175.737 72.3362 176.957L77.8396 189.026C78.5062 190.488 79.6918 191.65 81.1665 192.288L96.2872 198.827C98.0105 199.572 99.9721 199.534 101.665 198.722L120.201 189.837C122.033 188.959 123.347 187.274 123.753 185.284L125.833 175.083C126.308 169.937 127.26 159.361 127.26 158.219V141.616L125.833 124.623L124.795 109.835L123.412 98.0226C123.239 96.548 121.99 95.4363 120.505 95.4363C119.684 95.4363 118.902 95.7806 118.347 96.3854L113.022 102.195C112.403 102.87 111.648 103.407 110.806 103.769L104.212 106.608C103.247 107.024 102.196 107.198 101.149 107.118L89.9922 106.26C89.5008 106.222 89.0153 106.128 88.545 105.98Z" fill="url(#paint0_linear)"/>
<path d="M85.5896 27.8538H78.66C77.8592 27.8538 77.0654 28.002 76.3187 28.2911L74.7542 28.8967C73.88 29.2351 73.0895 29.759 72.4372 30.4324L66.1739 36.8977C65.6518 37.4366 65.2272 38.0621 64.9189 38.7463L60.6389 48.2459C60.2615 49.0834 60.0664 49.9915 60.0664 50.9101V60.4724C60.0664 61.2056 60.1907 61.9335 60.4341 62.6251L62.531 68.5849L65.3848 77.2759C65.6875 78.4434 66.3447 80.9339 66.5523 81.5566C66.7405 82.1212 67.0851 84.7908 67.2767 86.4119C67.3131 86.7202 67.3702 87.0257 67.4492 87.3259L68.3888 90.8962C68.5472 91.4984 68.7916 92.0747 69.1144 92.6072L71.2221 96.0849L73.4273 100.755L75.6232 104.106C75.8021 104.379 76.0013 104.639 76.2192 104.882L78.8871 107.857C79.1382 108.137 79.4133 108.395 79.7091 108.628L82.2833 110.65C82.6907 110.97 83.135 111.24 83.6066 111.455L87.1773 113.078L90.6829 114.94C91.1117 115.168 91.5648 115.347 92.0336 115.474L96.1277 116.58L101.417 117.462C102.541 117.649 103.694 117.537 104.761 117.137L105.333 116.922C105.938 116.696 106.506 116.38 107.017 115.985L110.189 113.538C110.585 113.232 110.945 112.881 111.261 112.493L113.609 109.602C113.974 109.154 114.277 108.659 114.51 108.13L115.908 104.961C116.039 104.665 116.191 104.379 116.365 104.106L119.036 99.8926C119.329 99.4314 119.562 98.9352 119.73 98.4156L120.589 95.7611C120.797 95.1162 120.904 94.4425 120.904 93.7646V89.0802V82.9835V79.6227C120.904 79.0125 120.818 78.4054 120.648 77.8192L119.477 73.7736L117.79 69.6226L116.104 65.7311L114.158 61.5802L110.656 53.2783L105.433 39.3508C105.031 38.2776 104.351 37.3303 103.464 36.6052L96.7233 31.0991C95.9893 30.4994 95.1327 30.068 94.214 29.835L87.1835 28.0527C86.6625 27.9206 86.1271 27.8538 85.5896 27.8538Z" fill="#F4C4BD"/>
<path d="M74.4651 44.0684L77.9675 42.9009L80.3024 40.3066V36.4151V33.5613V29.7995L82.2481 33.5613V36.4151L83.4156 38.8797L85.491 39.5283L87.3071 37.5825H93.0146C94.5712 38.1879 97.9439 39.5802 98.9816 40.3066C100.019 41.033 102.441 43.5495 103.522 44.717C104.559 46.6627 106.739 50.6321 107.154 50.9434C107.569 51.2547 109.748 55.8294 110.786 58.0778L115.456 66.1203L118.699 73.6439L119.866 79.7406L120.515 86.875V92.842V95.0472C120.428 97.2091 121.345 101.637 121.552 102.052C121.76 102.467 122.417 111.478 122.72 115.932C122.85 120.256 123.161 129.059 123.368 129.682C123.576 130.304 123.974 134.87 124.147 137.075V148.75V161.592L123.109 171.58L119.866 185.071L116.104 192.205L117.142 192.724L121.682 184.422L124.147 179.363L126.222 173.267L128.168 162.241V169.375C128.168 169.894 126.482 178.325 126.222 179.363C126.015 180.193 124.752 182.39 124.147 183.384L119.866 195.059L130.373 178.974L128.168 194.54L130.114 190.649L131.93 185.071L133.875 177.028V183.384C133.875 184.007 132.578 186.584 131.93 187.795L130.892 194.021L133.875 187.017L136.6 176.509L137.378 171.58L138.545 158.479L139.583 168.078C139.972 170.499 140.854 175.679 141.269 177.028C141.684 178.377 141.096 182.52 140.75 184.422L140.232 192.724H145.42C146.328 191.34 148.144 187.432 148.144 187.017C148.144 186.498 149.182 177.417 149.182 176.509C149.182 175.601 148.274 169.764 148.144 168.856C148.041 168.13 147.236 164.143 146.847 162.241L144.253 152.252C144.815 153.852 146.121 157.337 146.847 158.479C147.755 159.906 149.831 166.651 150.739 168.078C151.647 169.505 151.647 176.899 151.776 178.325C151.906 179.752 152.555 183.384 152.684 184.163C152.788 184.785 153.506 187.795 153.852 189.222L155.408 183.384V175.342L153.852 165.613L150.739 160.554L149.182 155.755L146.847 148.75L150.09 156.533L153.852 163.408V159.776C151.69 154.717 144.253 140.448 144.253 139.929C144.253 139.281 137.897 129.163 137.508 128.903C137.118 128.644 134.783 116.58 134.783 115.932C134.783 115.283 133.227 107.37 133.097 106.592C132.967 105.814 131.541 98.9387 131.022 97.7712C130.607 96.8373 130.849 91.3286 131.022 88.691C130.546 85.5778 129.517 79.1698 129.206 78.4434C128.817 77.5354 126.352 67.8066 126.222 67.2877C126.118 66.8726 123.671 60.5424 122.46 57.4292C121.336 54.5755 119.01 48.7123 118.699 48.0896C118.309 47.3113 114.029 41.0849 113.64 40.3066C113.328 39.684 110.051 35.5503 108.451 33.5613L100.408 27.2052L91.9769 25.7783L84.0642 25L81.4698 25.7783L79.2646 26.6863L77.5783 25.7783L72.7788 27.2052L65.3849 30.967L59.6774 37.5825L56.8236 41.8632L53.5807 51.8514L51.7646 61.5802V70.4009L52.4132 86.0967V101.274V109.186V117.748L51.7646 125.92V136.557L52.4132 152.252V164.575L51.7646 179.363L50.9863 193.243H53.3212L53.638 188.717L56.8236 192.724L58.3802 181.568L59.2882 175.601L61.234 170.413V176.38L60.5854 181.568V189.092L61.8826 186.757L62.9203 181.568L63.958 177.288L65.5146 172.229V178.066L64.3472 187.925L66.9415 193.892V187.925C67.5036 185.46 68.6278 180.297 68.6278 179.363C68.6278 178.196 67.9793 171.58 68.2387 170.413C68.4462 169.479 68.9305 167.429 69.1467 166.521L70.3142 158.608L71.0925 164.057V170.413C71.3951 173.05 72.0005 178.533 72.0005 179.363V183.384L76.0217 192.724V191.686C75.6758 189.87 74.984 186.057 74.984 185.33V180.271V176.769C74.7678 174.737 74.3354 170.62 74.3354 170.413V166.521V162.111L74.7245 153.55L75.5028 165.094C75.6758 167.948 76.2033 173.837 76.9297 174.564C77.6561 175.29 77.2324 180.228 76.9297 182.606C77.1459 184.509 77.6302 188.469 77.8377 189.092C78.0453 189.715 78.3566 191.773 78.4863 192.724H81.3401V189.092L80.3024 184.163V176.38L81.3401 184.163L83.2859 191.686L84.9722 192.724L83.2859 186.757L81.3401 176.38L80.8212 161.851L80.3024 152.252V141.745L80.8212 132.276V124.882L79.3943 110.613L77.5783 106.722L74.3354 102.571L71.4816 97.1226C70.5304 95.2201 68.6019 91.2594 68.4981 90.6368C68.3943 90.0142 67.936 86.5723 67.3307 85.059L66.5524 81.6863L65.3849 76.4976L63.8283 68.7146V58.9858V51.8514L66.8118 45.7547L71.3519 42.9009L74.4651 44.0684Z" fill="#FEE3DC"/>
<path d="M77.7077 66.3797L81.729 67.0282L80.5615 68.5849C79.8697 68.801 78.3304 69.2334 77.7077 69.2334H75.5025L72.7785 69.7523L69.6653 70.6603L68.3681 72.2169L66.0332 74.2924V73.5141L68.3681 69.7523L72.0002 67.9363L74.854 66.3797H77.7077Z" fill="#DFAA9F"/>
<path d="M93.9224 62.2287L92.1063 64.4339L93.9224 64.0448L95.7384 62.8773L97.6841 61.0613L100.538 59.3749C101.316 59.029 102.925 58.2853 103.132 58.0778C103.34 57.8702 105.294 57.9913 106.245 58.0778L108.58 58.7264L110.396 58.9858L109.748 58.0778L108.062 57.5589L105.467 57.04L102.354 57.5589L98.8516 58.9858L95.3492 60.4127L93.9224 62.2287Z" fill="#DFAA9F"/>
</g>
<defs>
<linearGradient id="paint0_linear" x1="99" y1="88.5" x2="99" y2="184.5" gradientUnits="userSpaceOnUse">
<stop stop-color="#F3B8AF"/>
<stop offset="0.773687" stop-color="#F4C4BD"/>
</linearGradient>
</defs>
</svg>
