<svg width="200" height="200" viewBox="0 0 200 200" fill="none" xmlns="http://www.w3.org/2000/svg">
<circle cx="100" cy="100" r="100" fill="#EFAFA6"/>
<mask id="mask0" mask-type="alpha" maskUnits="userSpaceOnUse" x="0" y="0" width="200" height="200">
<circle cx="100" cy="100" r="100" fill="#F5889D"/>
</mask>
<g mask="url(#mask0)">
<path d="M119.067 103.534L119.917 99.285L116.73 103.109L112.907 106.295C111.632 106.649 108.955 107.357 108.446 107.357C107.936 107.357 103.843 107.782 101.86 107.995L97.3989 106.72L91.6631 103.534L87.8393 100.772L84.2279 98.8601L81.2538 96.5233L78.7046 94.3989L74.2434 92.6995V104.808L69.3574 127.964V163.228C69.3574 164.715 74.6683 180.435 75.9429 183.409C77.2175 186.383 92.7253 202.528 93.7875 203.803C94.8496 205.078 114.181 209.114 117.155 208.477C120.129 207.839 131.176 202.316 132.663 200.192C133.853 198.492 136.275 182.347 137.337 174.487L131.176 151.544L128.839 144.534L125.653 137.523L122.891 133.062L119.917 126.902L118.218 122.865L117.155 119.041L118.218 112.881V108.632L119.067 103.534Z" fill="url(#paint0_linear)"/>
<path d="M126.927 52.0713V50.4249L126.792 49.1394C126.6 47.3117 126.196 45.5126 125.589 43.778L125.428 43.3199C125.153 42.5343 124.821 41.7698 124.435 41.0325L124.164 40.5156C123.186 38.647 121.81 37.0148 120.135 35.7334L120.032 35.6548C119.39 35.1641 118.795 34.6149 118.255 34.0145C117.525 33.2032 116.657 32.5283 115.863 31.7791C115.511 31.4469 115.243 31.1147 115.243 30.8809C115.243 30.7815 115.179 30.6537 115.069 30.508C113.853 28.9008 111.619 28.5441 109.603 28.5441C107.869 28.5441 106.163 28.9862 104.646 29.8286L97.3987 33.8549L91.8128 37.0776C88.2173 39.1519 85.1277 41.9995 82.7695 45.4155C80.4122 48.8302 78.0733 52.2214 77.8547 52.5492C77.4298 53.1866 76.5801 69.3316 76.5801 69.9689V88.01C76.5801 91.2643 77.9717 94.3614 80.4039 96.5233L82.7407 98.4353L86.3521 100.772L89.3262 102.472L92.7252 104.383L97.6112 107.145C99.0274 107.782 101.987 109.057 102.497 109.057H104.754C106.362 109.057 107.97 108.931 109.545 108.605C110.928 108.318 112.273 107.991 112.482 107.782L115.881 104.383L119.704 100.772L123.316 97.798C125.667 95.7234 127.51 93.0804 128.627 90.1503C128.981 88.7341 129.689 85.7741 129.689 85.2643V83.2713C129.689 81.9113 129.795 80.5532 130.008 79.2099C130.22 77.8665 130.326 76.5086 130.326 75.1486V74.4301V69.3316L130.022 66.799C129.801 64.9547 129.34 63.1474 128.65 61.4228C128.21 60.3242 127.863 59.1909 127.612 58.0348L127.525 57.6366C127.128 55.8081 126.927 53.9424 126.927 52.0713Z" fill="#F4D5BE"/>
<path d="M12 203.591V214H180.249V210.813V205.715V196.58L178.974 181.072V172.575L177.487 164.715L174.725 156.642L171.114 150.907L167.927 148.995L158.58 144.109L152.42 141.559L147.746 139.223L141.585 136.673L132.876 135.186L126.715 132L119.705 129.451L120.554 135.186L123.953 141.559L126.715 148.995L129.052 156.642V164.715V172.575L126.715 183.197L122.891 192.332C121.263 193.748 117.835 196.58 117.155 196.58C116.306 196.58 112.057 195.73 110.57 195.306C109.083 194.881 106.321 192.756 105.472 192.332C104.792 191.992 102.922 189.499 102.073 188.295L96.9741 180.86L93.3627 174.699L91.2383 168.326L88.6891 161.104L85.9275 152.819L82.7409 147.295L78.9171 139.223L72.3316 134.549H65.7461L58.0984 136.461L48.114 138.161L37.7047 139.223L29.4197 141.135L25.171 145.383L20.7098 154.518L19.2228 161.104L16.4611 172.575L13.9119 177.461V185.109L12 203.591Z" fill="#F1F3EF"/>
<path d="M110.995 31.7306L114.819 32.3679L118.643 36.4041L122.255 38.1036L123.954 41.715L126.503 48.7254L127.141 57.8601L128.415 63.8083L129.052 72.0933V81.0155L126.928 90.5751L123.529 96.3109L117.581 102.259V105.87L116.094 112.668V120.529V132.425L115.244 145.596L121.83 139.648L125.441 130.725L128.415 112.668L127.565 119.254L126.716 129.663L124.804 140.71L123.529 143.472L115.244 153.881L105.26 157.917L99.3115 159.404H108.234C108.914 159.404 112.199 158.979 113.757 158.767L117.581 158.554L116.094 160.679L111.42 163.865L114.394 162.591C116.448 161.599 120.81 159.447 121.83 158.767C122.849 158.087 124.237 156.218 124.804 155.368L125.441 154.731C126.291 154.801 128.075 154.901 128.415 154.731C128.755 154.561 130.115 152.819 130.752 151.969L133.089 147.933L134.788 145.596L136.275 145.808L136.913 147.933V152.819L137.125 158.767L136.275 162.166C135.85 164.007 135.001 167.732 135.001 167.902C135.001 168.072 132.735 169.105 131.602 169.601L125.441 171.513L129.052 172.363H132.664L131.602 174.062L129.052 175.337C130.823 175.408 134.491 175.507 135.001 175.337C135.51 175.167 140.312 173.283 142.648 172.363L147.109 169.601C148.03 167.335 149.871 162.676 149.871 162.166C149.871 161.656 150.438 157.846 150.721 156.005L149.871 147.508L148.809 139.648L147.747 132.425L146.472 122.653L145.198 113.306L143.498 104.808L145.198 109.057L147.322 115.43L148.809 122.653L149.871 128.601L150.721 132.85V128.601L148.172 114.155C147.322 111.96 145.622 107.4 145.622 106.72C145.622 106.04 144.206 102.33 143.498 100.56L141.161 94.399V88.0259C141.161 87.3461 140.878 83.494 140.736 81.6529L139.462 74.8549V63.171L139.037 57.8601L138.612 54.886L141.161 58.4974L143.498 61.4715L145.622 63.171L149.021 65.7202L146.472 62.7461L142.436 57.8601L140.736 53.8238L138.612 49.5751L135.213 45.114L133.301 42.7772L130.964 39.8031L132.876 40.6529L135.213 42.7772L137.762 45.7513L139.462 47.2383L142.436 49.5751C142.011 49.0086 141.076 47.8332 140.736 47.6632C140.396 47.4933 138.046 44.7599 136.913 43.4145L134.788 40.6529L131.602 38.1036L130.115 35.7668L131.602 36.4041L134.788 37.2539L137.762 38.1036C139.108 38.3869 141.926 38.9534 142.436 38.9534H146.897C147.407 38.9534 148.526 38.6701 149.021 38.5285L151.783 36.4041L148.172 38.1036H140.736C139.674 38.1036 135.638 36.6166 135.213 36.4041C134.873 36.2342 132.664 35.342 131.602 34.9171L129.052 34.2798L128.628 32.3679H130.964L136.913 32.7927L141.799 34.2798L145.622 35.7668L143.498 34.2798L138.612 32.3679L134.151 31.7306L127.778 31.0933L126.503 28.3316C125.229 26.3489 122.594 22.2984 122.255 21.9585C121.915 21.6187 120.697 20.5423 120.13 20.0466L116.519 16.4352L113.332 14.5233H110.995L107.384 16.0104L106.959 13.4611L105.047 10.487L102.923 9L95.7001 10.0622L87.2027 12.1865L78.7053 16.4352C75.8728 18.5596 70.1229 22.8508 69.783 23.0207C69.4431 23.1907 65.1094 27.6235 62.9851 29.8187L56.612 44.6891L53.8504 56.1606L51.0887 66.7824L48.9644 75.4922L46.84 87.8135V98.0104V107.995L48.5395 119.679L49.3892 124.777L46.84 129.238L42.3789 133.912L32.8193 138.373L26.8711 140.285C27.5084 140.568 28.953 141.135 29.6328 141.135C30.3125 141.135 34.5896 139.294 36.6431 138.373L42.3789 136.461L40.6794 138.373L37.2804 142.197L35.5809 146.021L37.2804 151.756L42.8037 155.155L47.9022 154.093H44.5032L40.8918 151.756L39.1923 147.508L40.6794 142.197L42.8037 139.648L46.84 137.736H49.3892L51.3011 137.098V142.197V150.057L54.0628 158.767L60.6483 164.927L67.4462 168.964L63.8348 165.99L58.0991 160.891C56.9661 158.838 54.7001 154.603 54.7001 154.093C54.7001 153.583 53.2839 149.066 52.5758 146.87L53.6379 141.135L54.7001 146.021L56.8245 152.819L60.6483 159.192C62.1353 160.962 65.2369 164.588 65.7467 164.927C66.2566 165.267 71.4825 167.76 74.0317 168.964L70.2079 165.99C68.7208 164.29 65.6193 160.721 65.1094 160.041C64.5996 159.362 63.4808 156.926 62.9851 155.793V152.181L66.384 156.43L72.9695 161.741C74.9523 163.511 78.9177 167.179 78.9177 167.689C78.9177 168.326 85.2908 170.876 86.7778 170.876C87.9675 170.876 91.239 170.309 92.726 170.026C91.0973 169.318 87.6276 167.859 86.7778 167.689C85.9281 167.519 84.5827 165.069 84.0162 163.865L82.5291 160.041L78.9177 152.819L85.2908 158.554L91.0265 161.741L87.84 158.554L82.5291 152.181L78.9177 146.87L75.3063 141.56L72.1198 132L69.3581 122.228L68.0835 112.456L66.5965 102.047L68.9333 114.58L69.783 120.953L74.669 133.912L78.068 138.373L82.5291 144.746L81.2545 142.197L79.9799 136.036L83.1664 142.197L86.7778 144.109L83.1664 139.223L80.4048 132.425C79.6258 129.592 77.9405 123.842 77.4307 123.503C76.9208 123.163 76.2269 118.546 75.9436 116.28L74.669 110.332C74.315 108.136 74.0317 103.959 74.0317 103.109V96.3109L73.3944 89.7254L74.0317 85.9016L73.6068 90.5751L74.8815 95.6736L75.9436 103.746L78.068 109.694L79.9799 113.943L83.1664 117.554L81.2545 112.668L79.1302 106.295V102.047L78.4929 94.1865L78.068 89.7254C78.8469 91.2124 79.9799 96.9902 79.9799 97.5C79.9799 98.0098 81.821 99.8368 82.7416 100.687L84.8659 101.749L82.7416 96.8627L81.2545 89.7254C80.9713 88.5924 80.4048 86.2415 80.4048 85.9016C80.4048 85.4767 79.1302 78.6788 79.1302 78.2539V70.8187L79.9799 64.2332L80.4048 59.1347L81.0421 52.9741L84.441 50.4249C86.6362 49.0086 91.1965 46.0912 91.8763 45.7513C92.726 45.3264 96.9747 41.715 97.3996 41.2902C97.7395 40.9503 100.657 39.0242 102.073 38.1036L104.622 35.7668L109.084 32.3679L110.995 31.7306Z" fill="#B68459"/>
<path d="M94.4251 52.9741L98.4614 53.8238L97.8241 55.0985H96.337L92.7256 54.2487L90.6013 53.8238L88.052 54.2487L84.8655 55.7358L82.7412 57.0104L79.9795 58.7098V58.0725L81.0417 57.0104C81.8206 56.5147 83.5059 55.4383 84.0158 55.0985C84.5256 54.7586 86.6358 53.5406 87.6272 52.9741L90.6013 52.3368L94.4251 52.9741Z" fill="#B68459"/>
<path d="M111.845 55.5233L110.783 54.4611L111.42 54.2487L114.182 52.9741H116.518H118.643L120.342 53.399L122.467 53.8238L123.954 54.4611L125.228 55.0985L126.29 56.7979L124.378 55.5233L121.829 54.2487H119.492C118.926 54.3195 117.708 54.4611 117.368 54.4611C116.943 54.4611 114.394 55.0985 113.757 55.0985C113.247 55.0985 112.27 55.3817 111.845 55.5233Z" fill="#B68459"/>
</g>
<defs>
<linearGradient id="paint0_linear" x1="104.5" y1="94" x2="107" y2="179.5" gradientUnits="userSpaceOnUse">
<stop stop-color="#EEB88F"/>
<stop offset="0.72754" stop-color="#F3D5BE"/>
</linearGradient>
</defs>
</svg>
